<?xml version="1.0" encoding="utf-8"?>
<!-- Generator: Adobe Illustrator 17.1.0, SVG Export Plug-In . SVG Version: 6.00 Build 0)  -->
<!DOCTYPE svg PUBLIC "-//W3C//DTD SVG 1.1//EN" "http://www.w3.org/Graphics/SVG/1.1/DTD/svg11.dtd">
<svg version="1.1" id="Layer_1" xmlns="http://www.w3.org/2000/svg" xmlns:xlink="http://www.w3.org/1999/xlink" x="0px" y="0px"
	 viewBox="0 0 267.8 271.4" enable-background="new 0 0 267.8 271.4" xml:space="preserve">
<symbol  id="alien" viewBox="-133.9 -135.7 267.8 271.4">
	<g>
		<path fill="#1A3355" d="M8.6,12.9c0.1,0.1,0.2,0.2,0.3,0.3c5.7,6.6-3,9.6-7.7,10.8c-1.9,0.5-3.7,1-5.6,0.9
			c-4.9-0.1-9.9-4.6-7.9-9.6C-9.5,8.5,3.8,8,8.6,12.9z"/>
		<g>
			<defs>
				<path id="SVGID_1_" d="M33.2-73.3c-2.8,2.7-4.7-1.2-4.3,1.9c0.1,0.6-20.4,8-20.7,8.9c-0.5,1.8,1.1,13.3,6,23
					c1.3,2.5,2.6,5,3.9,7.6c1,1.9,2,5.7,3.5,7.1c1.5,1.5,2.1-0.9,3.6-2.2c2.5-2.3,5.6-4.1,8.4-5.9c0.4-0.2,0.7-0.5,1.1-0.6
					c0.6-0.2,1.2-0.2,1.7-0.2c4.5,0,9.5,0,13.9-1.1c1.2-0.3,9.5-3.5,10-1.8c0.6,2.1,1.1,4.2,1.7,6.3c0.1,0.5,0.2,1,0.1,1.5
					c-0.3,1-1.5,1.3-2.6,1.5c-7.7,1.2-13.7,3.5-21.2,7.9c-1.9,3.8-3.7,7.6-5.6,11.4c-1.5,3.1-2,6.2-4.3,8.9
					c4.5,1.2,8.9,3.1,12.8,5.7c0.3,0.2,0.6,0.4,0.7,0.7c0.2,0.6-0.4,1.2-0.9,1.6C32.3,15,20.5,17.2,10.4,20
					c-2.5,0.7-26.6,5.2-26.6,8c-13.5,3.4-15.3,2.4-26.9-6.3c-8.3-6.3-17.6-14.6-16.4-25c-0.7,5.6,27.9,18.8,32.7,19
					c8.5,0.3,15.6-4.5,20.1-11.4C-19.2-6.2-35-22-39.4-38.2c-3-11.1-1.6-23.8,5.9-32.5c3.6-4.1-10-11.1-11.5-11
					c-8.9,0.8-24.8,6.7-27.3,16.6c-16.1-12.5-24.2-17.7-49.9-24.2c5.5-3.7,18.7-7,26.9-4c11.8,4.4,15.1,9.2,22.2,19.7
					c3-4.4,8.8-7.3,13.4-9.9c19.3-11.2,32.8-10.4,45.3-1.1c1.7,1.3,10.9,9.9,10.9,9.9s5.4,0.1,20.1-4.3c6.4-1.9,23.8-22.2,27.3-35.1
					c-1.5-2.8,2.9,0.5,6.5,4.3c11.2,7.6,9.9,1.3,20.3,6.9C82.2-97,90.3-89.7,86.1-84.5c-10.5,0.8-23.8-0.2-40.3-20.7
					C40.8-92.5,39-79,33.2-73.3z"/>
			</defs>
			<use xlink:href="#SVGID_1_"  overflow="visible" fill="#9D85BE"/>
			<clipPath id="SVGID_2_">
				<use xlink:href="#SVGID_1_"  overflow="visible"/>
			</clipPath>
			<path clip-path="url(#SVGID_2_)" fill="#1A3355" d="M101.9-108.8c-11.4-10.1-26.8-14.3-41.8-16.6c-5.4-0.8-11.1-1.4-16.2,0.8
				c-7,3-10.9,10.3-14.3,17C24.3-97,21.4-90.4,16.1-79.8c12.4-6.2,11.4,11.7,18.3,15.6c6.4-6.8,11.3-14.8,14.5-23.6
				c18.6,7,38.4,10.6,58.3,10.7c1.3,0,5-7.3,6-8.1c1-0.7,1.5-1.9,1.8-3.1C117.9-98.3,109.8-101.8,101.9-108.8z"/>
			<path clip-path="url(#SVGID_2_)" fill="#1A3355" d="M-124.9-132.1c-3.3,2.8-4.9,7.2-6.3,11.4c-1.6,4.6-3.2,9.5-2.6,14.3
				c0.8,7,5.9,12.7,11,17.5c12.8,12.1,27.5,22.2,43.3,29.9c3.1,1.5,6.2,2.9,9.6,3.1c6.9,0.4,11.8-4,16.7-8.2
				c1.5-1.2,11.9-10.9,6.9-13.6c4.7,2.5,9.2-3.2,11.4-6.8c1.3-2.1,1.9-4.6,1.2-6.9c2.5-0.2,5-0.4,7.5-0.9c0.9-0.2,2.1-0.7,1.9-1.6
				c-0.1-0.5-0.6-0.8-1-1c-12.9-7.7-27.8-8.2-41.7-14.1c-8.4-4.3-15.2-11-22.7-16.7c-7.5-5.7-16.4-10.5-25.8-9.9
				C-118.7-135.4-122.2-134.4-124.9-132.1z"/>
			<path clip-path="url(#SVGID_2_)" fill="#FFFFFF" d="M-31.1,27c0.9,0.6,1.8,1.2,2.9,1.3c0.8,0.1,1.5-0.1,2.3-0.3
				c3.5-0.9,7-1.9,10.5-2.8c-2.3,0.4-4.6,0.8-7,1.2c-2.1,0.4-4.3,0.7-6.4,0.4c-4.9-0.8-8.1-5.2-12.7-7.1
				C-38.1,22.1-34.7,24.6-31.1,27z"/>
			<path clip-path="url(#SVGID_2_)" fill="#FFFFFF" d="M-22.1-14.3c2.5,2.3,4.5,5.2,5.8,8.3c-2.9-3-5.6-6.2-8-9.6
				C-23.5-15.5-22.8-14.9-22.1-14.3z"/>
			<path opacity="0.25" clip-path="url(#SVGID_2_)" d="M31.8-34.5c2.5-0.7,4.9-1.5,6.6-1.9c4.7-1,9.5-1.8,14.3-2.8
				c2.5-0.5,4.9-1.6,7.4-0.7c3,1.1,3.7,3.9,2.9,6.8c-0.9,3.6-3.8,7-7.4,7.1c0.9-2,1.1-4.3,0.5-6.4c-4.7,0.1-9.4,0.1-14,1.1
				C34.7-29.6,28.1-25.5,22-21c-5.9,4.5-12,8.3-17.5,13.3c3.8-3.7,4.8-10.3,9.7-12.3c-4,1.1-8.1,2.2-12.1,3.2
				C4-18.6,6.3-20.1,8.7-21C0.1-27.7-6.6-36.9-10.5-47.1c0,2,19.4,3.6,21.9,2.8c0.8-0.3,6.6,8.9,8.1,9.9
				C23.4-31.8,27.4-33.2,31.8-34.5z"/>
			<path opacity="0.25" clip-path="url(#SVGID_2_)" d="M1.3,14.8c0.3,0.4,0.6,0.7,1,1.1c-1.8,0-11.1,0.1-20.2,2.5
				c-1.4,0.3-2.9,0.6-4.4,0.8c-6.5,0.6-13.3-2.7-16.8-8.2c2.4,3.7,24.1-8.6,25.7-12.3C-8.5,4-3.6,9.4,1.3,14.8z"/>
			<path opacity="0.25" clip-path="url(#SVGID_2_)" fill="#FFFFFF" d="M-48.8,15.6c0.4-2.8,0.9-5.7,1.3-8.5c0.1-0.4,0.1-0.8,0.5-1.1
				c0.4-0.3,1.1-0.1,1.6,0.2c4.1,2.4,6.1,7.2,9.6,10.3c2.9,2.5,3.8,6.4,7.6,6.9c10,1.3,15.7-5.9,33.6-6.8C-0.4,11.8-6.1,6.9-11.8,2
				c-8.8-7.5-17.9-15.5-22.3-26.2c3.5-2.1,7-4.2,10.4-6.3c1.1-0.6,2.3-1.3,3.5-0.9c0.9,0.3,1.5,1.1,2,1.9C-10.8-18.7-2-9,7.9-0.5
				c2.6-4.6,8.8-6,13.9-7.2c2.6,6.2-0.2,11.4-2.4,17.8c-3,8.5-8.4,19.6-17.5,22.5c-10.4,3.3-22.9,2.7-33.6,1.8
				c-5.2-0.5-10.4-1.1-15.1-3.3c-7-3.4-11.7-10.2-15.3-17c-3.7-6.8-6.6-14.2-11.6-20.2"/>
			<path opacity="0.25" clip-path="url(#SVGID_2_)" d="M21.7-65.3c-1.4,1.2-2.7,1.6-4,1.7c-0.9,3.8,0.2,0.2,3,1.9
				c-24.6-1.4-48.1,8-72.1,12.5c2.6-2.9,6.1-9.7,8.9-12c3.8-3,6.1-7.9,8.6-12c1.3,1.3,2.7,2.7,4,4c0.6,0.6,1.3,1.3,2,1.8
				c1.2,1,2.6,1.9,4.1,2.1c1.3,0.2,2.6,0,3.9-0.2c5.4-0.9,10.8-0.8,16.1-2c0.6-0.1,2.8-0.9,5.6-1.9c-6.2-8.8-14.7-17.6-21.3-22.4
				c-9.3-6.7,9.6-7.9,13.6-7.8c1.4,0,4,0.6,7.1,1.2C8.9-96.6,16.4-78,18.4-83.4C16.2-77.3,17.5-70.2,21.7-65.3z"/>
		</g>
		<path fill="#1A3355" d="M25.7-9.5c0.1,0,0.3,0,0.4,0c8.7,0.8,4.6,9,2,13.1c-1,1.6-2,3.3-3.4,4.6c-3.5,3.3-10.3,3.5-12.3-1.4
			C9.7-0.1,18.9-9.7,25.7-9.5z"/>
		<path fill="#1A3355" d="M36.8-78.7c6.6,2.8-7.4,15.3-11.1,12.1C21.5-70.3,33.3-80.2,36.8-78.7z"/>
		<path fill="#1A3355" d="M-33.9-94.3c2.1-0.1,8.5,0.2,7.6,3.7c-0.7,2.6-8.2,2.6-10.4,2.3c-0.7-0.1-7.6-1.4-7.6-2c0-0.6,0-1.2,0-1.7
			C-41.7-93.1-37.7-94.2-33.9-94.3z"/>
		<path fill="#1A3355" d="M-46.2-48.6c-1.4,2.2,0.3,11.4,0.9,13.4c1,3.4,1.8,6.9,3.1,10.2c2.2,5.6,11.8,11.5,16.8,11.2
			c-2.2-2.5-5-8.5,2.2-12.9c9.5-5.8,22.4-7.9,36.1-8.2c4.4-0.1,4.7,3.2,7,7c1.8-2.3,5-4.8,5-4.8c0,0-1.1-4.1-1.1-4.3
			c-0.4-2.5-0.4-5.1-0.4-7.6c-0.7,0-1.4,0-2.1,0c0.1-4,0.2-8.1,0.1-12.1c0-0.4,0-0.9-0.2-1.3c-0.2-0.5-0.7-0.8-1.1-1.1
			C9.9-66.4-5-67-17-65.1C-28.3-63.4-39.9-58.6-46.2-48.6z"/>
		<path fill="#1A3355" d="M27.9,34.9c1.8-1.1,3.9-2,5.9-2.8c5.2-2.1,10-4.3,14.8-6.9c1.4-0.7,16.6-6,16.6-4.9c0-0.4-4-4.5-4.6-5
			c-2-1.8-4.2-3.1-7-1.9c0.6-1.6-0.1-3.7-1.6-4.5c-1.5-0.9-3.6-0.5-4.7,0.8c0.9-1.6,0.1-3.7-1.3-4.9c-1.4-1.2-3.3-1.6-5.2-1.7
			c-0.1,0.5-0.4,0.9-0.8,1.2c0.5-1.8-0.4-3.8-2-4.7c-1.6-0.9-3.8-0.5-5.1,0.8c1.3-1.4-4.8-2.6-6-2.1c-1.8,0.8-2.2,2.1-2.8,3.9
			c-1.5,4.1-1.6,8-4,11.8c-2.7,4.3-8.9,5.9-13.3,7.7c4.8,1,8.7,2.3,13.2-0.2c-1.2,0.6-2,1.9-2.1,3.3c1,0.5,2,1,3.1,1.2
			c1.1,0.1,2.4-0.2,3-1c-0.2,0.7-1,0.8-1.5,1.3c-1,1,0,2.8,1.3,3.1c1.4,0.3,2.7-0.3,4-1C24.9,30,23.4,37.7,27.9,34.9z"/>
		<path fill="#1968AB" d="M-45-27.4c-0.2-0.3-0.4-0.6-0.4-1c0-0.6,0.6-1,1.1-1.3c4.3-2.7,8.6-5.4,12.9-8.1c2.4,2.8,5.3,4.5,8.3,6.5
			c-3.4,0.7-14.1,8.7-16.4,10.3C-41.6-23-43.4-25.2-45-27.4z"/>
		<path fill="#1968AB" d="M-24.4-41.4c5.1-0.1,10.1-2.5,15-3.8c0,2.4,1,6.6,2.5,8.6c-5.2,0.6-10.1,3.5-15.1,5.1
			C-22.8-34.2-23.8-38.8-24.4-41.4z"/>
		<path fill="#1968AB" d="M-31.1-60.9c1.2-0.4,17.2-2.7,17-3.7c0.2,1.1,3.8,18.2,3.9,18.2c-5.1,1.4-9.9,2.7-15.1,3.6
			C-25.5-42.8-30.5-59.4-31.1-60.9z"/>
		<path fill="#1968AB" d="M-46.9-34.7c-1.6-3.5-2.2-7.2-2.9-11c-0.1-0.3-0.1-0.6,0-0.9c0.1-0.3,0.3-0.6,0.6-0.9c3.6-4,8-7.4,12.7-10
			c0.3,3.3,1.7,6.3,3.2,9.2c1,2.1,2,4.1,3,6.2c-2.5,2.3-5.3,4.2-8.1,6.2c-1.1,0.8-4.6,4.1-6.1,3.8C-45.5-32.2-46.3-33.2-46.9-34.7z"
			/>
		<path fill="#1968AB" d="M21.5,19.8c2.8-4.4,4.9-9.3,5.9-14.4c0.5,2.8,0.9,5.7-0.2,8.3c-0.5,1-1.1,1.8-1.8,2.6
			C24.2,17.6,22.9,18.7,21.5,19.8z"/>
		<path fill="#1968AB" d="M32.4,12.9c1.2-1.6,2.4-3.3,3.3-5.1c-1.3,5.1-4.5,9.7-8.8,12.7C28.8,17.9,30.6,15.4,32.4,12.9z"/>
		<path fill="#1968AB" d="M31.4,23.3c3.7-3.5,7.3-7.1,11-10.6c-0.6,2.5-2.4,4.6-4.4,6.3C35.9,20.6,33.6,21.9,31.4,23.3z"/>
		<path opacity="0.4" fill="#FFFFFF" d="M26.8,10.7c0.3,1.7,0.3,4-1.3,4.7C24.7,13.8,25.3,11.6,26.8,10.7z"/>
		<path opacity="0.4" fill="#FFFFFF" d="M33.6,12.9c0.3,2-1.5,4.1-3.5,4C30,15,31.6,13.1,33.6,12.9z"/>
		<path opacity="0.4" fill="#FFFFFF" d="M36.4,19.8c-0.8-0.6-0.4-2,0.5-2.5c0.9-0.5,1.9-0.4,2.9-0.2C39,18.3,37.8,19.3,36.4,19.8z"
			/>
		<path fill="#1968AB" d="M18.5,10.5c-2.8-0.5-5-3.1-4.4-7.4c0.4-3.6,3.6-6.6,7.2-7c-1.5,1.4-0.3,4.2,1.7,4.8s4.1-0.3,5.8-1.4
			c0.3,2.8-1.5,6.4-3.4,8.4C23.2,10,20.6,10.9,18.5,10.5z"/>
		<path fill="#1968AB" d="M-83.8-77.5c4.2,4.2,8.3,8.5,11.7,12.4c-14.8-5-21.9-12.3-37-16.5c-3.3-0.9-11.2-5-12.9-7.9
			c10.7-2,22,0.4,26.3,2.7C-91.6-84.6-87.6-81.2-83.8-77.5z"/>
		<g>
			<path fill="#1A3355" d="M-54.8,20.8c2,2.3,3.3,3.2,9.3,3.6c1.3,0.1,5.2-0.2,5-1.5c-2.6-1.4-3.2-1.4-3.5-1.6
				c-0.9-0.7-2.3-1.8-2.7-2.9c-2.8-7.1,9.8-6.3,13-4.7c0.1-1.5,0.4-1.8,0.5-3.3c-4.3-2-7.6-6.9-11.9-9.6c2.1-1.9,4.8-3.4,7.3-5
				l-2.9-11.9l-7.2-0.7l-4-1.8l-3.6-4.7l-9.4,3.3l0.1,2.9l-8.4,4.2L-75-6.2l0,2.9l8.9,9.1l3.1,1.8l5.3,0.8
				C-56.5,13.9-56.9,18.4-54.8,20.8z"/>
		</g>
		<path fill="#1968AB" d="M-41.4,10.4c0.1,0.2-0.4,1-0.3,1.1c-5.9,0.3-10.5,4.8-10.6,10.6c0.1-5.2-5.8-9.4-3.3-14.3
			c1.8-3.3,3.1-4.7,6.8-4.8C-48.6,6-43,7.9-41.4,10.4z"/>
		<path fill="#1968AB" d="M-69.6,1c5.9-0.4,23.8-6.4,17.5-8.2c-5.3,3.5-15.4,5-14.9-2.3c4.9-1.3,6.7-1.5,11.1-4
			c0.5-0.3,0.9-0.5,1.5-0.5c0.3,0,0.7,0.1,1,0.3c2.4,1,4.8,2,7.2,3c0.5,2.7,2,5.3,4.2,7c-2,1.9-4,3.8-6.1,5.6
			c-2,1.9-10.8,4.9-13.6,4.8C-65.7,6.6-68,4.8-69.6,1z"/>
		<path fill="#1968AB" d="M-54.5-16.3c-1.6,1.2-3.4,2.3-5.4,2.2c-2-0.2-3.8-2.4-2.8-4.1c1.7-0.5,3.3-1,5-1.5
			C-57.2-18.2-56-16.8-54.5-16.3z"/>
		<path fill="#1968AB" d="M-64.4-2.3c-3.1-1.2-5.3-4.2-5.5-7.5c-0.7,2.2-1.5,4.5-2.2,6.7C-69.8-1.9-67-1.6-64.4-2.3z"/>
		<g>
			<path fill="#1A3355" d="M65.3-20.9c1.7,2,3.6,4,5.1,6.2c0.4,0.6,0.8,1.2,1.1,1.9c2.8-1.1,10.5-1.1,10-5.2c0.7,3.5,4,2.8,6.4,1.1
				c2.1-1.5,4.6-2.6,6.9-3.9c-0.7-3.3-1.4-6.7-2.1-10c-1.5-0.7-2.9-1.5-4.4-2.2c-0.4-0.2-0.7-0.4-0.9-0.7c-0.4-0.9,0.7-1.6,1.6-1.9
				c-1.7-3-3.2-6.3-4.3-9.6c-2.8-1.3-6.2-1.2-9.2-0.2c-3,0.9-5.7,2.6-8.3,4.3c-0.3,0.2-0.6,0.4-0.9,0.4c-0.4,0.1-0.9-0.1-1.3-0.3
				c-3.1-1.3-6.5-2.2-9.7-1.2c-3.2,0.9-5.9,4.1-5.4,7.4c2.2-0.3,6.8-0.7,8.3,1.4c1.1,1.6,0.4,5-1.1,6.1c-0.6,0.4-1.3,0.6-2,0.8
				c-1.5,0.4-3,0.8-4.5,1.1c0.4,2.3,1.2,4.9,3.3,5.8c1.7,0.7,3.6,0,5.2-0.7c1.6-0.7,3.1-1.6,4.1-3.1C63.9-22.7,64.6-21.8,65.3-20.9z
				"/>
			<path fill="#1968AB" d="M76.7-30c3.5,0.6,7.2,2.3,9.6,3.7c2.4,1.4,4.5,3.2,7,4.3c-3.2,1.8-6.5,3.6-9.7,5.5
				c0.8-0.7-0.4-2.8-1.1-2.5c1.2-0.5,2.3-1.3,3.3-2.2c-4.2,1.5-8.3,1.2-12.4,2.8c1.2,0.1,2.4-0.1,3.6,0.1c1.1,0.2,3.6,1.2,2.6,2.7
				c-0.5,0.8-4.8,0.9-5.8,1.1c-0.5,0.1-1.1,0.2-1.5-0.1c-0.4-0.2-0.6-0.6-0.8-1c-1.4-2.8-3.5-5.2-6.1-7c0.4-0.8,1.2-1.3,1.6-2.1
				c0.6-1.2-0.3-2.4-1.5-2.5c-1.1,2.1-2.5,3.9-4.7,5.1c-2.1,1.1-4.7,0.6-6.6,1.5c4.3-2,7.6-6,8.8-10.6c0.3-1.2,0.4-2.6-0.3-3.6
				c1.5,1.4,3.4,4.9,5.2,5.6c1.5,0.5,2.7-0.7,4.1-0.9C73.4-30.4,75-30.3,76.7-30z"/>
		</g>
		<path fill="#1968AB" d="M25.7-68.6c-0.4-0.6-0.1-1.5,0.2-2.1c0.9-1.7,2.2-3.2,3.9-4.1s3.8-1.1,5.5-0.2c-2.8,1.3-4.8,4.3-4.8,7.3
			c-1-0.1-2-0.1-3-0.2C26.9-68,26.1-68,25.7-68.6z"/>
		<path fill="#1968AB" d="M57.7-104.3c0,0.3,12.5,5.5,13.5,6.1c0.8,0.4,1.7,1.2,1.5,2c-0.3,1.2-2.1,1-3.2,0.4
			c-3.4-1.6-6.8-3.1-10.1-4.9c-1.2-0.7-6.6-5.3-7.5-5C53.8-106.2,55.8-105.2,57.7-104.3z"/>
	</g>
	<g>
		<path fill="#1968AB" d="M111.7,71.6c0,0,7.6-2.2,10.9-7.9c3.3-5.7-0.3-10.9-0.3-10.9L111.7,71.6z"/>
		<g>
			<defs>
				<path id="SVGID_3_" d="M106.9,80.1c0.2-0.3,0.3-0.7,0.5-1c5.2-9.7,16.6-17.5,15.2-29.9c-0.4-3.8-3.1-6.9-4-10.6
					c-2.8-12.1-5.5-19.2-17.4-27.7c-1.1-0.8-1.5-2.2-2.6-2.9c-1.1-0.8-2.6-1.1-3.7-0.3c-3.8-9.8-6.7-14.1-13.3-10
					c-4.8,3-13.3,7.6-17.1,11.9c-1.4,1.7-2.6,3.6-4.1,5.2c-1.4,1.5-3.2,2.6-5,3.7C41.6,26.9,26,28.7,13.3,39.7
					C1.9,49.6-5.1,64.1-5.1,79.2c0,29.2,24.7,52.9,55.1,52.9c19.6,0,40.7-10.9,49.2-29.2C102.7,95.3,103.1,87.6,106.9,80.1z"/>
			</defs>
			<use xlink:href="#SVGID_3_"  overflow="visible" fill="#B8D2EB"/>
			<clipPath id="SVGID_4_">
				<use xlink:href="#SVGID_3_"  overflow="visible"/>
			</clipPath>
			<path opacity="0.25" clip-path="url(#SVGID_4_)" d="M68,34.3c1-1.6,2.6-2.7,4.2-3.6c6.4-3.6,13.6-5.3,20.9-5.9
				c4.9-0.4,10.2-0.3,14.5,2.2c4.3,2.5,7,6.8,9.6,11c0.5,0.9,1.1,1.8,1.1,2.8c0,2-2.1,3.3-3.9,4.1c-14.1,6.2-30.1,6.7-45.5,6.2
				c-0.5,0-1.1-0.1-1.5-0.4c-0.4-0.4-0.4-1-0.4-1.5c-0.1-2.4-0.1-4.8-0.2-7.3C66.6,39.3,66.6,36.5,68,34.3z"/>
			<path opacity="0.25" clip-path="url(#SVGID_4_)" fill="#2A8095" d="M-6.5,91.1l4.7,13.5c-0.4,0.5-0.7,0.8-0.7,0.8L-8,89.7
				c0,0,7.9-14.2,28.8-26.1C55.1,44,76.3,41.9,76.3,41.9l0.5,1.6c-4.4,0.7-24.4,4.4-54.5,21.6C1.4,77-6.5,91.1-6.5,91.1z"/>
			<path opacity="0.3" clip-path="url(#SVGID_4_)" d="M85.7,8.5c-0.6,0-1.3-0.1-1.8-0.4c-1.2-0.8-1.2-2.7-2.4-3.6
				c6,0.4,11.9,0.8,17.9,1.3C95.8,8.8,90.5,8.7,85.7,8.5z"/>
			<path opacity="0.3" clip-path="url(#SVGID_4_)" d="M94.3,8.3C90.6,9.6,86,9.6,83,7.7c-0.8-0.5-1.4-1.5-1.1-2.5
				c2.6,0,4.8,1.4,7.4,1.6c1.8,0.1,7,0.9,8.5-0.2C96.7,7.3,95.6,7.9,94.3,8.3z"/>
			<path opacity="0.4" clip-path="url(#SVGID_4_)" fill="#FFFFFF" d="M108.5,107.7c-7.7,19.3-32.7,24.4-50.7,27.2
				c-17.9,2.7-41.2-0.7-50.4-18.4c-1.4-2.7-2.4-5.7-2-8.6c0.7-6.3,6.8-10.5,12.3-13.7c13.7-8,27.6-15.6,41.7-22.9
				c3.1-1.6,6.4-3.2,9.9-3.4c3.4-0.2,6.7,0.9,10,1.2c8.8,0.8,17-3.9,24.6-8.4c3.6-2.2,7.3-4.3,10.9-6.5c2.1,2.2,2.1,5.7,1.1,8.5
				c-1,2.8-2.8,5.3-4,8.1C106.9,82.2,113.1,96.1,108.5,107.7z"/>
			<path opacity="0.85" clip-path="url(#SVGID_4_)" fill="#FFFFFF" d="M31.4,116.2c0.6-2.5,3.6-3.4,6.2-3.5
				c5.6-0.1,11.3,1.9,15.5,5.6c0.4,0.3,0.8,0.7,0.9,1.2c0.3,1.1-0.6,2.1-1.5,2.7c-5.5,4-13.7,3.6-18.8-0.9
				C32.3,120,31,118.1,31.4,116.2z"/>
			<path opacity="0.85" clip-path="url(#SVGID_4_)" fill="#FFFFFF" d="M79.9,73.6c-0.4-0.4-0.7-1-0.5-1.5c0.3-0.6,1.1-0.7,1.7-0.7
				c2,0,4,0.1,6,0.1C86.5,74.6,82.1,75.8,79.9,73.6z"/>
			<path opacity="0.25" clip-path="url(#SVGID_4_)" fill="#2A8095" d="M93.6,128.8c13.1-26.2,37-48.2,40-77.3
				c1.6-15.4-3.2-30.8-9.7-44.9c-4.9-10.5-11.4-21.2-22-25.9c-10.4-4.6-22.8-2.4-32.8,3.2S51.4-1.9,44.1,6.8
				c-3.9,4.6-7.7,9.3-12.5,12.8c-8.3,6-19,8-27,14.4c-7,5.6-11.4,14.3-11.6,23.3c15.3-8.7,35-9,50.6-0.8c9.4,5,17.8,12.9,28.4,14.1
				c6,0.7,12.4-0.9,17.9,1.5c5.4,2.4,8.6,8.1,9.5,13.9c0.9,5.8-0.1,11.7-1.1,17.4C96.6,112,95.1,120.4,93.6,128.8z"/>
		</g>
		<path fill="#1A3355" d="M118.9,37.9c0,0,2.1,1,3.7,3.5c3.3,5-0.2,12-0.2,12s0.7-4.9-0.8-7.9c-1.5-3.1-2.3-3.5-2.3-3.5L118.9,37.9z
			"/>
		<g>
			<path fill="#1968AB" d="M82.1,56.9c0,0-22.8,7.1-45.1,19S1.3,105.3,1.3,105.3l-3.2-0.6C1.3,101,15.9,85,35.5,74.5
				c22.3-12,45.1-19,45.1-19l-3.8-12c0.6-0.1,0.9-0.1,0.9-0.1L82.1,56.9z"/>
			<path fill="#1A3355" d="M35.5,74.5C15.9,85,1.3,101-1.9,104.7l-4.7-13.5c0,0,7.9-14.2,28.8-26.1c30.1-17.2,50.1-20.9,54.5-21.6
				l3.8,12C80.6,55.5,57.8,62.5,35.5,74.5z"/>
			<path fill="#1968AB" d="M18.4,85.4c-2-3.8-3.8-7.7-5.4-11.7c-0.2,3.7,1.5,7.2,1.9,10.9c0.4,3.7-1.2,8.2-4.8,8.8
				c-1.7-4-3.5-8-5.2-12c-0.3,4.7,0.6,9.5,2.6,13.8c-1.9,1-3.8,2-5.7,3C0.2,94.7-1.4,91.3-3,87.9c0.4,4.2,1.5,8.3,3,12.3
				c-1.4-2.7-2.8-5.5-4.2-8.2c1.1,3.9,2.7,7.7,4.6,11.2c1.2-2.2,3.2-4,5.1-5.6C19.8,85.5,35.5,75,52.1,66.5
				c-1.9-1.5-3.5-3.3-4.7-5.5c-0.2,2.5,0.2,5,1,7.4c-2.7,1.8-5.8,3-9,3.5c-2.2-3.4-4.5-6.9-6.7-10.3c1.1,4.2,2.3,8.5,3.4,12.7
				c-2.7,1.3-5.3,2.7-8,4c-1.2-3.8-2.8-7.4-4.7-10.8c0.2,4.1,1,8.2,2.3,12.1C23.3,81.6,20.8,83.5,18.4,85.4z"/>
		</g>
		<path fill="#1A3355" d="M65.3,58c-5.9-6.5,5.3-26.3,30.3-26.4s24.4,9,22.2,13.9c-2.3,4.9-2.6,8-13.1,11.3S76.7,70.7,65.3,58z"/>
		<path fill="#1968AB" d="M83.5,63.6c7.4-1.9,14.3-8.2,14.2-15.8c-6.5,1.2-13,1.9-19.6,2.3c0.1,4.8-9.4,6.9-9.3,11.7
			C70.5,61.6,81.8,64.1,83.5,63.6z"/>
		
			<radialGradient id="SVGID_5_" cx="102.5685" cy="42.1938" r="36.4247" gradientTransform="matrix(0.9797 -0.2003 5.393369e-02 0.2638 -0.1972 51.606)" gradientUnits="userSpaceOnUse">
			<stop  offset="0.3367" style="stop-color:#F7941E"/>
			<stop  offset="1" style="stop-color:#1A3355"/>
		</radialGradient>
		<path fill="url(#SVGID_5_)" d="M120.1,40.8c-0.8-7.2-12.1-11.7-25.3-10.2s-23.2,8.5-22.3,15.7S84.6,58,97.8,56.5
			S121,48,120.1,40.8z"/>
		<g>
			<path fill="#F7941E" d="M119,38.9c-0.3-1.8-2.6-2.9-5.1-2.5L81.6,42c-2.5,0.4-4.4,2.3-4.1,4.1l0,0.3c0.3,1.8,2.6,2.9,5.1,2.5
				l32.3-5.5c2.5-0.4,4.4-2.3,4.1-4.1L119,38.9z"/>
			<path fill="#FFFFFF" d="M114.1,39.8c-0.1-0.5-1.7-0.7-3.7-0.4l-24.6,4.2c-1.9,0.3-3.4,1-3.4,1.6l0,0.1c0.1,0.5,1.7,0.7,3.7,0.4
				l24.6-4.2C112.7,41.2,114.2,40.5,114.1,39.8L114.1,39.8z"/>
		</g>
	</g>
</symbol>
<use xlink:href="#alien"  width="267.8" height="271.4" x="-133.9" y="-135.7" transform="matrix(1 0 0 -1 133.8837 135.6766)" overflow="visible"/>
</svg>
